Coordinates
nRows=264
nColumns=2
inDegrees=yes
endheader
time	ankle_angle_r	
3.49272	 -4.608335	
3.52598	 -4.683454	
3.55925	 -4.719586	
3.59251	 -4.720197	
3.62578	 -4.706728	
3.65904	 -4.692834	
3.6923	 -4.685852	
3.72557	 -4.683327	
3.75883	 -4.681571	
3.7921	 -4.685703	
3.82536	 -4.690054	
3.85862	 -4.683722	
3.89189	 -4.678269	
3.92515	 -4.682665	
3.95842	 -4.681944	
3.99168	 -4.668091	
4.02494	 -4.647601	
4.05821	 -4.624880	
4.09147	 -4.604041	
4.12474	 -4.586868	
4.158	 -4.571165	
4.19126	 -4.558626	
4.22453	 -4.551139	
4.25779	 -4.549504	
4.29106	 -4.557138	
4.32432	 -4.569281	
4.35758	 -4.575268	
4.39085	 -4.575097	
4.42411	 -4.571382	
4.45738	 -4.562953	
4.49064	 -4.556314	
4.5239	 -4.557145	
4.55717	 -4.561115	
4.59043	 -4.565182	
4.6237	 -4.568243	
4.65696	 -4.568567	
4.69022	 -4.569436	
4.72349	 -4.572947	
4.75675	 -4.578472	
4.79002	 -4.589749	
4.82328	 -4.604578	
4.85654	 -4.613794	
4.88981	 -4.619973	
4.92307	 -4.632829	
4.95634	 -4.651559	
4.9896	 -4.667801	
5.02286	 -4.677452	
5.05613	 -4.683904	
5.08939	 -4.689044	
5.12266	 -4.689049	
5.15592	 -4.687535	
5.18918	 -4.695703	
5.22245	 -4.713594	
5.25571	 -4.729199	
5.28898	 -4.734530	
5.32224	 -4.732988	
5.3555	 -4.735736	
5.38877	 -4.750662	
5.42203	 -4.771673	
5.4553	 -4.785623	
5.48856	 -4.788890	
5.52182	 -4.790838	
5.55509	 -4.801099	
5.58835	 -4.814175	
5.62162	 -4.817255	
5.65488	 -4.813111	
5.68814	 -4.816002	
5.72141	 -4.830118	
5.75467	 -4.846173	
5.78794	 -4.850668	
5.8212	 -4.836939	
5.85446	 -4.815503	
5.88773	 -4.804724	
5.92099	 -4.809222	
5.95426	 -4.819689	
5.98752	 -4.823818	
6.02078	 -4.810087	
6.05405	 -4.776469	
6.08731	 -4.734189	
6.12058	 -4.697600	
6.15384	 -4.677789	
6.1871	 -4.677315	
6.22037	 -4.686295	
6.25363	 -4.694118	
6.2869	 -4.697301	
6.32016	 -4.694330	
6.35342	 -4.687890	
6.38669	 -4.682889	
6.41995	 -4.677575	
6.45322	 -4.669891	
6.48648	 -4.663042	
6.51974	 -4.659971	
6.55301	 -4.661277	
6.58627	 -4.662024	
6.61954	 -4.655122	
6.6528	 -4.644963	
6.68606	 -4.641217	
6.71933	 -4.642935	
6.75259	 -4.645304	
6.78586	 -4.646848	
6.81912	 -4.646823	
6.85238	 -4.649443	
6.88565	 -4.657495	
6.91891	 -4.664396	
6.95218	 -4.669460	
6.98544	 -4.679615	
7.0187	 -4.691182	
7.05197	 -4.696401	
7.08523	 -4.697078	
7.1185	 -4.699363	
7.15176	 -4.710801	
7.18502	 -4.732167	
7.21829	 -4.749220	
7.25155	 -4.755695	
7.28482	 -4.763069	
7.31808	 -4.774913	
7.35134	 -4.789029	
7.38461	 -4.810770	
7.41787	 -4.833803	
7.45114	 -4.837855	
7.4844	 -4.815383	
7.51766	 -4.778751	
7.55093	 -4.743574	
7.58419	 -4.713799	
7.61746	 -4.689053	
7.65072	 -4.675963	
7.68398	 -4.673618	
7.71725	 -4.669305	
7.75051	 -4.658531	
7.78378	 -4.644839	
7.81704	 -4.631324	
7.8503	 -4.624806	
7.88357	 -4.629107	
7.91683	 -4.637168	
7.9501	 -4.638966	
7.98336	 -4.630366	
8.01662	 -4.616611	
8.04989	 -4.606620	
8.08315	 -4.601929	
8.11642	 -4.600760	
8.14968	 -4.603905	
8.18294	 -4.606797	
8.21621	 -4.604246	
8.24947	 -4.599111	
8.28274	 -4.591891	
8.316	 -4.580912	
8.34926	 -4.572165	
8.38253	 -4.570720	
8.41579	 -4.575403	
8.44906	 -4.583575	
8.48232	 -4.590329	
8.51558	 -4.596124	
8.54885	 -4.612397	
8.58211	 -4.646190	
8.61538	 -4.688320	
8.64864	 -4.720059	
8.6819	 -4.730902	
8.71517	 -4.732642	
8.74843	 -4.743273	
8.7817	 -4.759125	
8.81496	 -4.766732	
8.84822	 -4.767917	
8.88149	 -4.767685	
8.91475	 -4.763745	
8.94802	 -4.757874	
8.98128	 -4.750113	
9.01454	 -4.735921	
9.04781	 -4.716127	
9.08107	 -4.688453	
9.11434	 -4.652012	
9.1476	 -4.618735	
9.18086	 -4.593458	
9.21413	 -4.572949	
9.24739	 -4.562996	
9.28066	 -4.563863	
9.31392	 -4.564644	
9.34718	 -4.561281	
9.38045	 -4.557035	
9.41371	 -4.557629	
9.44698	 -4.567359	
9.48024	 -4.575549	
9.5135	 -4.569367	
9.54677	 -4.558445	
9.58003	 -4.557232	
9.6133	 -4.563443	
9.64656	 -4.569459	
9.67982	 -4.570688	
9.71309	 -4.567247	
9.74635	 -4.566476	
9.77962	 -4.570369	
9.81288	 -4.572156	
9.84614	 -4.570750	
9.87941	 -4.568760	
9.91267	 -4.565021	
9.94594	 -4.560238	
9.9792	 -4.559352	
10.0125	 -4.570661	
10.0457	 -4.599073	
10.079	 -4.636295	
10.1123	 -4.675414	
10.1455	 -4.719430	
10.1788	 -4.757466	
10.212	 -4.771710	
10.2453	 -4.768625	
10.2786	 -4.764722	
10.3118	 -4.763028	
10.3451	 -4.761489	
10.3784	 -4.760371	
10.4116	 -4.761459	
10.4449	 -4.766896	
10.4782	 -4.774198	
10.5114	 -4.780221	
10.5447	 -4.787259	
10.578	 -4.794617	
10.6112	 -4.797064	
10.6445	 -4.792503	
10.6777	 -4.781260	
10.711	 -4.768543	
10.7443	 -4.761482	
10.7775	 -4.759354	
10.8108	 -4.757831	
10.8441	 -4.754324	
10.8773	 -4.750960	
10.9106	 -4.756972	
10.9439	 -4.776008	
10.9771	 -4.798176	
11.0104	 -4.815645	
11.0436	 -4.831588	
11.0769	 -4.848002	
11.1102	 -4.858441	
11.1434	 -4.851325	
11.1767	 -4.820806	
11.21	 -4.779789	
11.2432	 -4.746551	
11.2765	 -4.722506	
11.3098	 -4.701535	
11.343	 -4.684354	
11.3763	 -4.673354	
11.4096	 -4.669183	
11.4428	 -4.671043	
11.4761	 -4.674847	
11.5093	 -4.676565	
11.5426	 -4.672415	
11.5759	 -4.659134	
11.6091	 -4.643235	
11.6424	 -4.635681	
11.6757	 -4.638034	
11.7089	 -4.647190	
11.7422	 -4.658676	
11.7755	 -4.664731	
11.8087	 -4.663504	
11.842	 -4.658471	
11.8752	 -4.651520	
11.9085	 -4.647962	
11.9418	 -4.651198	
11.975	 -4.655012	
12.0083	 -4.655568	
12.0416	 -4.654489	
12.0748	 -4.652082	
12.1081	 -4.653402	
12.1414	 -4.663480	
12.1746	 -4.678137	
12.2079	 -4.698663	
12.2412	 -4.730228	
